<?xml version="1.0" encoding="utf-8"?>
<!-- Generator: Adobe Illustrator 26.0.1, SVG Export Plug-In . SVG Version: 6.00 Build 0)  -->
<svg version="1.1" id="Layer_1" xmlns="http://www.w3.org/2000/svg" xmlns:xlink="http://www.w3.org/1999/xlink" x="0px" y="0px"
	 viewBox="0 0 1096.7 1096.7" style="enable-background:new 0 0 1096.7 1096.7;" xml:space="preserve">
<style type="text/css">
	.st0{fill:#F9CC35;}
	.st1{fill:#282828;}
	.st2{fill:#9F9E9E;}
	.st3{fill:#BD2938;}
	.st4{fill:#B5B5B6;}
	.st5{fill:#73202C;}
	.st6{fill:#684259;}
	.st7{fill:#42323C;}
	.st8{fill:#1E74AD;}
	.st9{fill:#09496D;}
	.st10{fill:#A9C849;}
	.st11{fill:#6F813B;}
	.st12{fill:#677B3A;}
	.st13{fill:#30A5A0;}
	.st14{fill:#166862;}
</style>
<g>
	<g>
		<path class="st0" d="M548.3,1096.7C246,1096.7,0,850.7,0,548.4C0,246,246,0,548.3,0c302.4,0,548.4,246,548.4,548.4
			C1096.7,850.7,850.7,1096.7,548.3,1096.7z M548.3,46.1c-276.9,0-502.3,225.3-502.3,502.3s225.3,502.3,502.3,502.3
			s502.3-225.3,502.3-502.3S825.3,46.1,548.3,46.1z"/>
	</g>
	<g>
		<path class="st0" d="M191.6,288.7h64.3V633c0,11.5,2.9,20.5,8.8,27.1c5.9,6.5,14,9.8,24.5,9.8c4.3,0,9.2-0.8,14.9-2.4
			c5.6-1.6,11-3.4,16.1-5.4l9.3,51.1c-9.3,4.4-20.5,7.8-33.3,10.4c-12.9,2.6-24.3,3.9-34.5,3.9c-22.2,0-39.4-6.1-51.7-18.4
			c-12.3-12.3-18.4-29.7-18.4-52.3V288.7z"/>
		<path class="st0" d="M563.9,728.8c-24.5,0-46.2-6-64.9-17.8c-18.7-11.9-33.5-27.4-44.4-46.4v185h-64.3V411.8H447v55.9
			c11.7-18.6,26.8-33.5,45.3-44.6c18.5-11.1,39.4-16.7,62.8-16.7c21,0,40.3,4.4,57.9,13.1c17.5,8.7,32.7,20.4,45.6,35.1
			c12.9,14.7,22.9,31.7,30.1,51.1c7.2,19.4,10.8,39.8,10.8,61.3c0,22.6-3.3,43.7-9.9,63.3c-6.6,19.6-16,36.7-28.1,51.1
			c-12.1,14.5-26.4,26-43,34.5C602,724.5,583.8,728.8,563.9,728.8z M542.9,672.9c13.6,0,26-3,37.1-8.9c11.1-6,20.6-13.9,28.6-23.8
			c8-9.9,14.1-21.2,18.4-33.9c4.3-12.7,6.4-25.8,6.4-39.3c0-14.3-2.4-27.8-7.3-40.4c-4.9-12.7-11.5-23.8-19.9-33.3
			c-8.4-9.5-18.4-17-30.1-22.6c-11.7-5.5-24.4-8.3-38-8.3c-8.2,0-16.8,1.6-25.7,4.8c-9,3.2-17.3,7.5-25.1,13.1
			c-7.8,5.6-14.6,12-20.5,19.3c-5.9,7.3-9.9,15.4-12.3,24.1v81.5c3.9,9.5,9,18.4,15.2,26.8c6.2,8.3,13.1,15.5,20.7,21.4
			c7.6,6,15.9,10.7,24.8,14.3C524.4,671.1,533.5,672.9,542.9,672.9z"/>
		<path class="st0" d="M923.3,706.8c-8.2,4-19.5,8.4-33.9,13.4c-14.4,5-29.8,7.4-46.2,7.4c-10.1,0-19.7-1.4-28.6-4.2
			c-9-2.8-16.9-6.9-23.7-12.5c-6.8-5.5-12.2-12.8-16.1-21.7c-3.9-8.9-5.8-19.7-5.8-32.4V462.3h-40.3v-50.6H769V309.5h64.3v102.3H900
			v50.6h-66.6V636c0.8,11.1,4.2,19.1,10.2,24.1c6,5,13.5,7.4,22.5,7.4c9,0,17.5-1.6,25.7-4.8c8.2-3.2,14.2-5.7,18.1-7.7L923.3,706.8
			z"/>
	</g>
	<g>
		<path class="st1" d="M552.4,800.2c-5.1,0.2-9.7,1.4-13.7,3.6c-4,2.3-6.8,5.5-8.5,9.6v39.3h-13.3v-64.1h12.3v14.4
			c2.2-4.4,5-8,8.5-10.6c3.5-2.7,7.3-4.1,11.3-4.4c0.8,0,1.5,0,2,0c0.5,0,1,0,1.4,0.1V800.2z"/>
		<path class="st1" d="M589.9,853.9c-4.9,0-9.4-0.9-13.4-2.6c-4-1.8-7.5-4.2-10.3-7.2c-2.9-3-5.1-6.5-6.6-10.6
			c-1.6-4-2.3-8.3-2.3-12.7c0-4.5,0.8-8.8,2.3-12.8c1.6-4,3.8-7.6,6.6-10.7c2.8-3.1,6.3-5.5,10.3-7.2c4-1.8,8.5-2.6,13.5-2.6
			c4.9,0,9.3,0.9,13.3,2.7c4,1.8,7.4,4.2,10.2,7.2s5,6.5,6.5,10.4c1.5,4,2.2,8.1,2.2,12.4c0,1,0,1.9-0.1,2.8
			c-0.1,0.9-0.2,1.6-0.2,2.1h-50.5c0.2,2.9,0.9,5.4,2,7.7c1.1,2.3,2.5,4.3,4.2,6c1.7,1.7,3.7,3,5.9,3.9c2.2,0.9,4.5,1.4,6.9,1.4
			c1.8,0,3.5-0.2,5.2-0.7c1.7-0.5,3.3-1.1,4.8-2c1.4-0.9,2.7-1.9,3.9-3.1c1.1-1.2,2-2.6,2.6-4.1l11.3,3.3
			c-2.2,4.8-5.8,8.8-10.8,11.8C602.4,852.4,596.5,853.9,589.9,853.9z M609,815.7c-0.2-2.7-0.9-5.2-2-7.5c-1.1-2.3-2.5-4.2-4.2-5.8
			c-1.7-1.6-3.7-2.8-5.9-3.7s-4.6-1.4-7.1-1.4c-2.5,0-4.8,0.5-7.1,1.4c-2.2,0.9-4.2,2.1-5.9,3.7c-1.7,1.6-3,3.5-4.1,5.8
			c-1,2.3-1.7,4.8-1.9,7.5H609z"/>
		<path class="st1" d="M652.2,853.9c-3.1,0-5.9-0.5-8.5-1.5c-2.6-1-4.9-2.4-6.8-4.2c-1.9-1.8-3.4-3.9-4.5-6.4
			c-1.1-2.5-1.6-5.1-1.6-8c0-3,0.6-5.8,1.9-8.2s3.1-4.6,5.5-6.4c2.4-1.8,5.2-3.2,8.4-4.2c3.3-1,6.9-1.5,10.8-1.5
			c3,0,5.9,0.3,8.8,0.8c2.9,0.5,5.5,1.2,7.8,2.1v-4.4c0-4.7-1.3-8.4-4-11.1s-6.5-4-11.5-4c-3.4,0-6.7,0.6-9.9,1.9
			c-3.3,1.3-6.6,3.1-10.1,5.5l-4.1-8.6c8.1-5.6,16.5-8.3,25.3-8.3c8.7,0,15.4,2.3,20.2,6.8c4.8,4.5,7.2,11,7.2,19.4v23.2
			c0,2.9,1.2,4.3,3.5,4.4v11.5c-1.3,0.2-2.4,0.4-3.3,0.5c-0.9,0.1-1.8,0.1-2.7,0.1c-2.6,0-4.6-0.7-6-2c-1.4-1.3-2.3-3-2.6-5
			l-0.4-4.1c-2.8,3.8-6.3,6.6-10.4,8.7C661.3,852.9,656.9,853.9,652.2,853.9z M655.8,844c3.2,0,6.3-0.6,9.1-1.8
			c2.9-1.2,5.1-2.8,6.7-5c1.7-1.5,2.5-3,2.5-4.7v-8.5c-2.3-0.9-4.6-1.6-7.2-2.1c-2.5-0.5-5-0.7-7.4-0.7c-4.7,0-8.6,1-11.6,3.1
			c-3,2.1-4.5,4.8-4.5,8.3c0,3.2,1.2,5.9,3.5,8C649.2,842.9,652.2,844,655.8,844z"/>
		<path class="st1" d="M705.9,763.1h13.3v71c0,2.4,0.6,4.2,1.8,5.6s2.9,2,5.1,2c0.9,0,1.9-0.2,3.1-0.5c1.2-0.3,2.3-0.7,3.3-1.1
			l1.9,10.6c-1.9,0.9-4.2,1.6-6.9,2.1c-2.7,0.5-5,0.8-7.1,0.8c-4.6,0-8.1-1.3-10.7-3.8c-2.5-2.5-3.8-6.1-3.8-10.8V763.1z"/>
		<path class="st1" d="M779.5,849.4c-1.7,0.8-4,1.7-7,2.8c-3,1-6.1,1.5-9.5,1.5c-2.1,0-4.1-0.3-5.9-0.9c-1.9-0.6-3.5-1.4-4.9-2.6
			s-2.5-2.6-3.3-4.5c-0.8-1.8-1.2-4.1-1.2-6.7v-40.1h-8.3v-10.4h8.3v-21.1H761v21.1h13.7v10.4H761v35.8c0.2,2.3,0.9,3.9,2.1,5
			c1.2,1,2.8,1.5,4.6,1.5c1.9,0,3.6-0.3,5.3-1c1.7-0.7,2.9-1.2,3.7-1.6L779.5,849.4z"/>
		<path class="st1" d="M793.3,867.7c1.2,0.2,2.4,0.5,3.6,0.6c1.2,0.2,2.1,0.2,2.8,0.2c1,0,1.9-0.2,2.7-0.7s1.6-1.2,2.4-2.4
			c0.8-1.1,1.6-2.8,2.5-4.8c0.8-2.1,1.8-4.8,2.9-8l-25.9-64.1h13.6l19.5,52.3l17.4-52.3h12.5l-28.6,79c-1.3,3.7-3.5,6.8-6.7,9.3
			c-3.2,2.5-7.2,3.7-12.2,3.7c-1,0-2-0.1-3-0.2c-1-0.1-2.2-0.4-3.5-0.8V867.7z"/>
	</g>
</g>
</svg>
