<?xml version="1.0" encoding="UTF-8"?>
<svg xmlns="http://www.w3.org/2000/svg" version="1.1" viewBox="0 0 1892.2 461.3">
  <defs>
    <style>
      .cls-1 {
        fill: #f9cc35;
      }

      .cls-2 {
        fill: #9e9d9d;
      }

      .cls-3 {
        fill: #282827;
      }
    </style>
  </defs>
  <!-- Generator: Adobe Illustrator 28.7.1, SVG Export Plug-In . SVG Version: 1.2.0 Build 142)  -->
  <g>
    <g id="Logo">
      <g id="LPT">
        <path class="cls-1" d="M10.8,13.5h48.2v258c0,8.6,2.2,15.4,6.6,20.3,4.4,4.9,10.5,7.3,18.4,7.4,3.8,0,7.5-.7,11.2-1.8,4.2-1.2,8.2-2.5,12-4l7,38.3c-8,3.6-16.4,6.2-25,7.8-8.5,1.8-17.1,2.8-25.8,2.9-16.6,0-29.5-4.6-38.7-13.8-9.2-9.2-13.8-22.3-13.8-39.2V13.5h0Z"/>
        <path class="cls-1" d="M289.6,343.2c-18.4,0-34.6-4.5-48.6-13.4-13.8-8.7-25.2-20.6-33.3-34.7v138.6h-48.1V105.7h42.5v41.9c8.5-13.7,20.1-25.1,33.9-33.4,13.8-8.3,29.5-12.5,47-12.5s30.2,3.3,43.3,9.8c13,6.4,24.6,15.4,34.1,26.3,9.8,11.3,17.4,24.3,22.6,38.3,5.4,14.7,8.2,30.2,8.1,45.9.1,16.1-2.4,32.1-7.4,47.5-5,14.7-12,27.5-21,38.3-8.9,10.7-19.8,19.5-32.2,25.8-12.4,6.4-26,9.6-40.9,9.6h0ZM273.9,301.3c9.7.1,19.2-2.2,27.8-6.7,8.3-4.4,15.6-10.5,21.5-17.8,6.1-7.6,10.7-16.2,13.8-25.4,3.2-9.5,4.8-19.4,4.8-29.4s-1.8-20.6-5.5-30.3c-3.4-9.1-8.5-17.6-14.9-24.9-6.3-7.1-13.9-12.9-22.5-16.9-8.9-4.2-18.6-6.3-28.5-6.2-6.6,0-13.1,1.3-19.2,3.6-13.4,4.8-25.3,13.2-34.2,24.3-4.3,5.3-7.4,11.5-9.2,18v61c2.9,7.1,6.7,13.9,11.4,20,4.4,6,9.7,11.4,15.5,16,5.7,4.4,11.9,8,18.6,10.7,6.5,2.6,13.5,4,20.6,4h0Z"/>
        <path class="cls-1" d="M558.9,326.7c-8.3,3.8-16.7,7.2-25.4,10-11.1,3.8-22.8,5.6-34.6,5.6s-14.5-1-21.4-3.1c-6.5-1.9-12.5-5.1-17.7-9.4-5.3-4.4-9.4-9.9-12-16.3-2.9-6.7-4.4-14.8-4.4-24.3v-145.7h-30.2v-37.9h30.2V29.1h48.1v76.6h49.9v37.9h-49.9v130.1c.6,8.3,3.1,14.3,7.7,18.1s10.1,5.6,16.8,5.6,13.1-1.2,19.2-3.6c6.1-2.4,10.7-4.3,13.6-5.8l10,38.8h0Z"/>
      </g>
      <g id="Realty">
        <path class="cls-3" d="M802.7,148.1c-18.7.6-35.3,5-49.7,13.1-14.5,8.2-24.8,19.8-30.9,35v142.6h-48.1V105.7h44.7v52.1c7.9-16,18.2-28.9,30.9-38.5,12.7-9.7,26.3-14.9,40.9-15.8h7.2c1.7,0,3.4,0,5,.4v44.1h0Z"/>
        <path class="cls-3" d="M938.9,343.2c-17.8,0-34-3.2-48.6-9.6-14.1-6-26.9-14.9-37.4-26.1-10.4-11.1-18.6-24.1-24.1-38.3-5.7-14.8-8.6-30.5-8.5-46.3,0-15.9,2.8-31.7,8.5-46.6,5.5-14.3,13.6-27.5,24.1-38.8,10.5-11.2,23.3-20.2,37.4-26.2,14.6-6.4,30.9-9.6,49-9.6s33.9,3.3,48.4,9.8c13.9,6.2,26.5,15,37,26.1,10.3,10.9,18.2,23.8,23.4,37.9,5.4,14.5,8.2,29.8,8.1,45.2,0,3.6,0,6.9-.4,10-.3,3.1-.6,5.7-.9,7.8h-183.4c.7,9.7,3.1,19.2,7.2,28.1,3.8,8.1,9,15.4,15.3,21.6,12.5,12.2,29.2,19,46.6,18.9,6.4,0,12.8-.8,19-2.5,6.1-1.5,11.9-3.9,17.3-7.1,5.2-3.1,9.9-6.9,14-11.4,4-4.3,7.3-9.3,9.6-14.7l41.2,12c-7.9,17.5-20.9,31.9-39.2,43-18.2,11.1-39.5,16.7-63.7,16.7h.1ZM1008.5,204.6c-.8-9.4-3.2-18.6-7.2-27.2-3.7-7.9-8.8-15.1-15.1-21.2-6.2-5.8-13.5-10.5-21.5-13.6-8.2-3.3-17-4.9-25.8-4.9-26.7-.3-50.9,15.3-61.8,39.7-3.9,8.6-6.2,17.8-7,27.2h138.4Z"/>
        <path class="cls-3" d="M1165.3,343.2c-10.5,0-21-1.8-30.9-5.6-9.1-3.5-17.4-8.7-24.5-15.4-6.9-6.6-12.4-14.4-16.2-23.2-4-9.1-6-19-5.9-29,0-11,2.3-20.9,7-29.9,4.8-9.1,11.6-17,19.9-23.2,8.6-6.5,18.8-11.6,30.7-15.1,11.8-3.6,24.9-5.4,39.2-5.3,10.7,0,21.4,1,32,2.9,9.7,1.7,19.2,4.3,28.5,7.8v-16c0-17.2-4.8-30.7-14.4-40.3-9.6-9.7-23.5-14.5-41.6-14.4-12.4,0-24.6,2.4-36.1,6.9-11.8,4.6-24,11.2-36.6,19.8l-14.9-31.2c29.4-20.2,60.1-30.3,91.9-30.3s56.1,8.2,73.6,24.5,26.2,39.8,26.2,70.4v84.2c0,10.4,4.2,15.8,12.7,16v41.9c-4.7.9-8.7,1.5-12,1.8s-6.6.4-9.8.4c-9.3,0-16.6-2.4-21.7-7.1-5.1-4.8-8.2-10.8-9.4-18.3l-1.3-14.7c-9.9,13.4-22.9,24.2-37.9,31.4-15.1,7.3-31.6,11-48.4,10.9h0ZM1178.4,307.1c11.3,0,22.6-2.1,33-6.5,10.4-4.3,18.5-10.3,24.3-18,6.1-5.3,9.2-11,9.2-16.9v-30.7c-8.4-3.3-17.1-5.9-26-7.6-8.9-1.7-17.9-2.6-26.9-2.7-17.2,0-31.3,3.8-42.2,11.4-10.9,7.6-16.4,17.6-16.4,30.1-.2,11.1,4.4,21.8,12.7,29.2,8.5,7.9,19.3,11.8,32.4,11.8h0Z"/>
        <path class="cls-3" d="M1360.5,13.5h48.2v258c0,8.6,2.2,15.4,6.6,20.3,4.4,4.9,10.5,7.3,18.4,7.4,3.8,0,7.5-.7,11.2-1.8,4.2-1.2,8.2-2.5,12-4l7,38.3c-8,3.6-16.4,6.2-25,7.8-8.5,1.8-17.1,2.8-25.8,2.9-16.6,0-29.6-4.6-38.8-13.8-9.2-9.2-13.8-22.3-13.8-39.2V13.5h0Z"/>
        <path class="cls-3" d="M1628,326.7c-8.3,3.8-16.7,7.2-25.4,10-11.1,3.8-22.8,5.7-34.6,5.6-7.3,0-14.5-1-21.5-3.1-6.5-1.9-12.5-5.1-17.7-9.4-5.3-4.4-9.4-9.9-12-16.3-2.9-6.7-4.4-14.8-4.4-24.3v-145.7h-30.2v-37.9h30.2V29.1h48.1v76.6h49.9v37.9h-49.9v130.1c.6,8.3,3.1,14.3,7.7,18,4.5,3.7,10.1,5.6,16.8,5.6s13.1-1.2,19.2-3.6c6.1-2.4,10.6-4.3,13.6-5.8l10.1,38.8h.1Z"/>
        <path class="cls-3" d="M1677.9,393.6c4.4.9,8.7,1.6,12.9,2.2,3.4.5,6.8.8,10.3.9,3.4,0,6.8-.8,9.8-2.5,2.8-1.6,5.6-4.5,8.5-8.7,2.9-4.2,5.9-10,9-17.6,3.1-7.6,6.6-17.3,10.7-29.2l-94.1-233.1h49.5l70.9,189.8,63-189.8h45.5l-103.8,286.9c-4.7,13.3-13.1,25-24.3,33.6-11.5,9.1-26.3,13.6-44.4,13.6s-7.3-.2-10.9-.7c-4.3-.6-8.6-1.5-12.7-2.9v-42.8.3Z"/>
      </g>
      <g id="Tagline">
        <path class="cls-2" d="M370.1,387.9c13.1,0,19.2,5.7,19.2,14s-3.2,10.5-9.3,12.8v.2c7,1.6,10.5,5.9,10.5,12.9s-6.9,15-18.9,15h-20.4v-54.8h18.9,0ZM360.5,411.2h9.1c7.6,0,10.8-2.8,10.8-7.9s-3.1-7.8-10.3-7.8h-9.5v15.6h-.1ZM360.5,435h9.8c7.5,0,10.9-2.7,10.9-8.2s-3.2-8.3-11.5-8.3h-9.2v16.5h0Z"/>
        <path class="cls-2" d="M436.9,387.9c13.5,0,19.6,5.6,19.6,15.2s-3.9,12-10.2,13.6v.2c3.9,1.3,5.7,3.6,8.2,10.5l5.6,15.5h-10.1l-4.6-13.8c-2.2-6.2-4.5-8.2-10.2-8.2h-7.9v22h-9.2v-54.8h18.9v-.2ZM427.3,413.2h9.2c7.6,0,10.8-3.7,10.7-9.2,0-5.9-4-8.5-11.2-8.5h-8.6v17.6h-.1Z"/>
        <path class="cls-2" d="M532.4,415.3c0,17.6-9.7,28.6-25.4,28.6s-25.4-10.9-25.4-28.6,9.7-28.6,25.4-28.6,25.4,10.9,25.4,28.6ZM491.1,415.3c0,12.6,6.1,20.3,15.9,20.3s15.9-7.8,15.9-20.3-6.1-20.3-15.9-20.3-15.9,7.8-15.9,20.3h0Z"/>
        <path class="cls-2" d="M602.4,442.7h-11.9l-21.2-26.4h-.2v26.4h-9.2v-54.8h9.2v24.4h.2l20-24.4h11.1l-22.4,26.1,24.4,28.7h0Z"/>
        <path class="cls-2" d="M634.8,395.9v14.9h25.7v7.9h-25.7v16h28.2v8h-37.4v-54.8h36.7v8h-27.5Z"/>
        <path class="cls-2" d="M710.2,387.9c13.5,0,19.6,5.6,19.6,15.2s-3.9,12-10.2,13.6v.2c3.9,1.3,5.7,3.6,8.2,10.5l5.6,15.5h-10.1l-4.6-13.8c-2.2-6.2-4.5-8.2-10.2-8.2h-7.9v22h-9.2v-54.8h18.9v-.2ZM700.5,413.2h9.2c7.6,0,10.8-3.7,10.7-9.2,0-5.9-4-8.5-11.2-8.5h-8.6v17.6h-.1Z"/>
        <path class="cls-2" d="M767.5,427.9l-5.1,14.9h-9.7l19.9-54.8h12.4l19.9,54.8h-9.7l-5.1-14.9h-22.7,0ZM786,415.5c-2.5-7.3-4.9-14.5-7.1-21.8h-.2c-2.2,7.3-4.5,14.5-7,21.8l-1.5,4.3h17.2l-1.5-4.3h0Z"/>
        <path class="cls-2" d="M871.9,404.7h-9.9c-1.1-6.2-5.5-9.7-12.5-9.7s-15.9,7.8-15.9,20.6,5.9,20.7,15.5,20.7,13.9-4.9,13.9-15.5h-14v-7.7h22.6v29.6h-7.9v-6.8h-.2c-2.9,4.8-9,7.8-16.6,7.8-14,0-22.9-10.6-22.9-28.2s9.7-28.8,25.4-28.8,21.3,7,22.3,17.9h.2Z"/>
        <path class="cls-2" d="M911.4,395.9v14.9h25.7v7.9h-25.7v16h28.2v8h-37.4v-54.8h36.7v8h-27.5Z"/>
        <path class="cls-2" d="M1012.5,395.9v16.9h24.4v7.9h-24.4v22h-9.2v-54.8h35.5v8h-26.3Z"/>
        <path class="cls-2" d="M1112.6,415.3c0,17.6-9.7,28.6-25.4,28.6s-25.4-10.9-25.4-28.6,9.7-28.6,25.4-28.6,25.4,10.9,25.4,28.6ZM1071.4,415.3c0,12.6,6.1,20.3,15.9,20.3s15.9-7.8,15.9-20.3-6.1-20.3-15.9-20.3-15.9,7.8-15.9,20.3Z"/>
        <path class="cls-2" d="M1159,387.9c13.5,0,19.6,5.6,19.6,15.2s-3.9,12-10.2,13.6v.2c3.9,1.3,5.7,3.6,8.2,10.5l5.6,15.5h-10.1l-4.6-13.8c-2.2-6.2-4.5-8.2-10.2-8.2h-7.9v22h-9.2v-54.8h18.9v-.2ZM1149.4,413.2h9.2c7.6,0,10.8-3.7,10.7-9.2,0-5.9-4-8.5-11.2-8.5h-8.6v17.6h0Z"/>
        <path class="cls-2" d="M1279.6,434.7v8h-36.2v-54.8h9.2v46.8h27Z"/>
        <path class="cls-2" d="M1304.8,442.7v-54.8h9.2v54.8h-9.2Z"/>
        <path class="cls-2" d="M1354.4,395.9v16.9h24.4v7.9h-24.4v22h-9.2v-54.8h35.5v8h-26.3Z"/>
        <path class="cls-2" d="M1416.6,395.9v14.9h25.7v7.9h-25.7v16h28.2v8h-37.4v-54.8h36.7v8h-27.5Z"/>
        <path class="cls-2" d="M1482.7,389.8v27.3h-5.3v-27.3h-10.5v-4.7h26.4v4.7h-10.6Z"/>
        <path class="cls-2" d="M1537.1,417.1v-16.1c0-4,0-8.1.2-12.1h0c-1.2,4-2.5,8-3.9,12l-5.5,16.2h-6.2l-5.5-16.2c-1.3-4-2.6-8-3.9-12h0c0,4,.2,8.1.2,12.1v16.1h-5.2v-32h8.7l5.2,15.2c1.3,4,2.6,8,3.7,12h0c1.1-4,2.4-8.1,3.7-12l5.2-15.2h8.7v32h-5.4Z"/>
      </g>
    </g>
  </g>
</svg>